<mxfile host="app.diagrams.net" modified="2022-04-08T16:07:45.700Z" agent="5.0 (Windows NT 10.0; WOW64) AppleWebKit/537.36 (KHTML, like Gecko) Chrome/86.0.4240.198 Safari/537.36" etag="lh9F8p-Rm-ZCBpza6WPS" version="17.4.1" type="github">
  <diagram id="Yls9eW0UNPXd8SoAQL2J" name="Page-1">
    <mxGraphModel dx="2243" dy="793" grid="1" gridSize="10" guides="1" tooltips="1" connect="1" arrows="1" fold="1" page="1" pageScale="1" pageWidth="827" pageHeight="1169" math="0" shadow="0">
      <root>
        <mxCell id="0" />
        <mxCell id="1" parent="0" />
        <mxCell id="5S6Rnx8ayw8SPRR6pbC9-1" value="yshop-common" style="rounded=0;whiteSpace=wrap;html=1;fillColor=none;" parent="1" vertex="1">
          <mxGeometry x="90" y="90" width="150" height="50" as="geometry" />
        </mxCell>
        <mxCell id="Hv7dV6qF_i-MDi4Ku1Tc-3" style="edgeStyle=orthogonalEdgeStyle;rounded=0;orthogonalLoop=1;jettySize=auto;html=1;exitX=0;exitY=0.5;exitDx=0;exitDy=0;entryX=1;entryY=0.5;entryDx=0;entryDy=0;strokeColor=#003366;" edge="1" parent="1" source="Hv7dV6qF_i-MDi4Ku1Tc-2" target="5S6Rnx8ayw8SPRR6pbC9-1">
          <mxGeometry relative="1" as="geometry" />
        </mxCell>
        <mxCell id="Hv7dV6qF_i-MDi4Ku1Tc-2" value="yshop-generator" style="rounded=0;whiteSpace=wrap;html=1;fillColor=none;" vertex="1" parent="1">
          <mxGeometry x="300" y="20" width="150" height="50" as="geometry" />
        </mxCell>
        <mxCell id="Hv7dV6qF_i-MDi4Ku1Tc-7" style="edgeStyle=orthogonalEdgeStyle;rounded=0;orthogonalLoop=1;jettySize=auto;html=1;exitX=0;exitY=0.5;exitDx=0;exitDy=0;entryX=1;entryY=0.5;entryDx=0;entryDy=0;" edge="1" parent="1" source="Hv7dV6qF_i-MDi4Ku1Tc-4" target="Hv7dV6qF_i-MDi4Ku1Tc-6">
          <mxGeometry relative="1" as="geometry" />
        </mxCell>
        <mxCell id="Hv7dV6qF_i-MDi4Ku1Tc-8" style="edgeStyle=orthogonalEdgeStyle;rounded=0;orthogonalLoop=1;jettySize=auto;html=1;exitX=0;exitY=0.5;exitDx=0;exitDy=0;entryX=1;entryY=0.5;entryDx=0;entryDy=0;" edge="1" parent="1" source="Hv7dV6qF_i-MDi4Ku1Tc-4" target="Hv7dV6qF_i-MDi4Ku1Tc-5">
          <mxGeometry relative="1" as="geometry" />
        </mxCell>
        <mxCell id="Hv7dV6qF_i-MDi4Ku1Tc-4" value="yshop-mproot" style="rounded=0;whiteSpace=wrap;html=1;fillColor=none;" vertex="1" parent="1">
          <mxGeometry x="90" y="180" width="150" height="50" as="geometry" />
        </mxCell>
        <mxCell id="Hv7dV6qF_i-MDi4Ku1Tc-5" value="pageHelper" style="rounded=0;whiteSpace=wrap;html=1;fillColor=none;" vertex="1" parent="1">
          <mxGeometry x="-120" y="220" width="150" height="50" as="geometry" />
        </mxCell>
        <mxCell id="Hv7dV6qF_i-MDi4Ku1Tc-6" value="mybatis" style="rounded=0;whiteSpace=wrap;html=1;fillColor=none;" vertex="1" parent="1">
          <mxGeometry x="-120" y="140" width="150" height="50" as="geometry" />
        </mxCell>
        <mxCell id="Hv7dV6qF_i-MDi4Ku1Tc-10" style="edgeStyle=orthogonalEdgeStyle;rounded=0;orthogonalLoop=1;jettySize=auto;html=1;exitX=0;exitY=0.5;exitDx=0;exitDy=0;entryX=1;entryY=0.5;entryDx=0;entryDy=0;strokeColor=#00FF00;" edge="1" parent="1" source="Hv7dV6qF_i-MDi4Ku1Tc-9" target="Hv7dV6qF_i-MDi4Ku1Tc-4">
          <mxGeometry relative="1" as="geometry" />
        </mxCell>
        <mxCell id="Hv7dV6qF_i-MDi4Ku1Tc-11" style="edgeStyle=orthogonalEdgeStyle;rounded=0;orthogonalLoop=1;jettySize=auto;html=1;exitX=0;exitY=0.5;exitDx=0;exitDy=0;entryX=1;entryY=0.5;entryDx=0;entryDy=0;strokeColor=#00FF00;" edge="1" parent="1" source="Hv7dV6qF_i-MDi4Ku1Tc-9" target="5S6Rnx8ayw8SPRR6pbC9-1">
          <mxGeometry relative="1" as="geometry" />
        </mxCell>
        <mxCell id="Hv7dV6qF_i-MDi4Ku1Tc-9" value="yshop-logging" style="rounded=0;whiteSpace=wrap;html=1;fillColor=none;" vertex="1" parent="1">
          <mxGeometry x="360" y="180" width="150" height="50" as="geometry" />
        </mxCell>
        <mxCell id="Hv7dV6qF_i-MDi4Ku1Tc-13" style="edgeStyle=orthogonalEdgeStyle;rounded=0;orthogonalLoop=1;jettySize=auto;html=1;exitX=0;exitY=0.5;exitDx=0;exitDy=0;entryX=1;entryY=0.5;entryDx=0;entryDy=0;" edge="1" parent="1" source="Hv7dV6qF_i-MDi4Ku1Tc-12" target="Hv7dV6qF_i-MDi4Ku1Tc-9">
          <mxGeometry relative="1" as="geometry" />
        </mxCell>
        <mxCell id="Hv7dV6qF_i-MDi4Ku1Tc-12" value="yshop-tools" style="rounded=0;whiteSpace=wrap;html=1;fillColor=none;" vertex="1" parent="1">
          <mxGeometry x="570" y="180" width="150" height="50" as="geometry" />
        </mxCell>
        <mxCell id="Hv7dV6qF_i-MDi4Ku1Tc-15" style="edgeStyle=orthogonalEdgeStyle;rounded=0;orthogonalLoop=1;jettySize=auto;html=1;exitX=0;exitY=0.5;exitDx=0;exitDy=0;entryX=1;entryY=0.5;entryDx=0;entryDy=0;strokeColor=#FF3333;" edge="1" parent="1" source="Hv7dV6qF_i-MDi4Ku1Tc-14" target="5S6Rnx8ayw8SPRR6pbC9-1">
          <mxGeometry relative="1" as="geometry" />
        </mxCell>
        <mxCell id="Hv7dV6qF_i-MDi4Ku1Tc-14" value="yshop-weixin" style="rounded=0;whiteSpace=wrap;html=1;fillColor=none;" vertex="1" parent="1">
          <mxGeometry x="300" y="310" width="150" height="50" as="geometry" />
        </mxCell>
        <mxCell id="Hv7dV6qF_i-MDi4Ku1Tc-17" style="edgeStyle=orthogonalEdgeStyle;rounded=0;orthogonalLoop=1;jettySize=auto;html=1;exitX=0;exitY=0.5;exitDx=0;exitDy=0;entryX=1;entryY=0.5;entryDx=0;entryDy=0;strokeColor=#003366;" edge="1" parent="1" source="Hv7dV6qF_i-MDi4Ku1Tc-16" target="Hv7dV6qF_i-MDi4Ku1Tc-12">
          <mxGeometry relative="1" as="geometry" />
        </mxCell>
        <mxCell id="Hv7dV6qF_i-MDi4Ku1Tc-18" style="edgeStyle=orthogonalEdgeStyle;rounded=0;orthogonalLoop=1;jettySize=auto;html=1;exitX=0;exitY=0.5;exitDx=0;exitDy=0;entryX=1;entryY=0.5;entryDx=0;entryDy=0;strokeColor=#003366;" edge="1" parent="1" source="Hv7dV6qF_i-MDi4Ku1Tc-16" target="Hv7dV6qF_i-MDi4Ku1Tc-14">
          <mxGeometry relative="1" as="geometry" />
        </mxCell>
        <mxCell id="Hv7dV6qF_i-MDi4Ku1Tc-16" value="yshop-shop" style="rounded=0;whiteSpace=wrap;html=1;fillColor=none;" vertex="1" parent="1">
          <mxGeometry x="827" y="310" width="147" height="50" as="geometry" />
        </mxCell>
        <mxCell id="Hv7dV6qF_i-MDi4Ku1Tc-20" style="edgeStyle=orthogonalEdgeStyle;rounded=0;orthogonalLoop=1;jettySize=auto;html=1;exitX=0;exitY=0.5;exitDx=0;exitDy=0;entryX=1;entryY=0.5;entryDx=0;entryDy=0;strokeColor=#003366;" edge="1" parent="1" source="Hv7dV6qF_i-MDi4Ku1Tc-19" target="Hv7dV6qF_i-MDi4Ku1Tc-2">
          <mxGeometry relative="1" as="geometry">
            <Array as="points">
              <mxPoint x="1040" y="45" />
              <mxPoint x="1040" y="45" />
            </Array>
          </mxGeometry>
        </mxCell>
        <mxCell id="Hv7dV6qF_i-MDi4Ku1Tc-21" style="edgeStyle=orthogonalEdgeStyle;rounded=0;orthogonalLoop=1;jettySize=auto;html=1;exitX=0;exitY=0.5;exitDx=0;exitDy=0;entryX=1;entryY=0.5;entryDx=0;entryDy=0;strokeColor=#003366;" edge="1" parent="1" source="Hv7dV6qF_i-MDi4Ku1Tc-19" target="Hv7dV6qF_i-MDi4Ku1Tc-16">
          <mxGeometry relative="1" as="geometry">
            <Array as="points">
              <mxPoint x="1020" y="45" />
              <mxPoint x="1020" y="335" />
            </Array>
          </mxGeometry>
        </mxCell>
        <mxCell id="Hv7dV6qF_i-MDi4Ku1Tc-19" value="yshop-admin" style="rounded=0;whiteSpace=wrap;html=1;fillColor=none;" vertex="1" parent="1">
          <mxGeometry x="1100" y="20" width="147" height="50" as="geometry" />
        </mxCell>
        <mxCell id="Hv7dV6qF_i-MDi4Ku1Tc-23" style="edgeStyle=orthogonalEdgeStyle;rounded=0;orthogonalLoop=1;jettySize=auto;html=1;exitX=0;exitY=0.5;exitDx=0;exitDy=0;entryX=1;entryY=0.5;entryDx=0;entryDy=0;strokeColor=#003366;" edge="1" parent="1" source="Hv7dV6qF_i-MDi4Ku1Tc-22" target="Hv7dV6qF_i-MDi4Ku1Tc-16">
          <mxGeometry relative="1" as="geometry">
            <Array as="points">
              <mxPoint x="1020" y="435" />
              <mxPoint x="1020" y="335" />
            </Array>
          </mxGeometry>
        </mxCell>
        <mxCell id="Hv7dV6qF_i-MDi4Ku1Tc-22" value="yshop-mall" style="rounded=0;whiteSpace=wrap;html=1;fillColor=none;" vertex="1" parent="1">
          <mxGeometry x="1100" y="410" width="147" height="50" as="geometry" />
        </mxCell>
        <mxCell id="Hv7dV6qF_i-MDi4Ku1Tc-25" style="edgeStyle=orthogonalEdgeStyle;rounded=0;orthogonalLoop=1;jettySize=auto;html=1;exitX=0;exitY=0.5;exitDx=0;exitDy=0;entryX=1;entryY=0.5;entryDx=0;entryDy=0;strokeColor=#003366;" edge="1" parent="1" source="Hv7dV6qF_i-MDi4Ku1Tc-24" target="Hv7dV6qF_i-MDi4Ku1Tc-19">
          <mxGeometry relative="1" as="geometry" />
        </mxCell>
        <mxCell id="Hv7dV6qF_i-MDi4Ku1Tc-26" style="edgeStyle=orthogonalEdgeStyle;rounded=0;orthogonalLoop=1;jettySize=auto;html=1;exitX=0;exitY=0.5;exitDx=0;exitDy=0;entryX=1;entryY=0.5;entryDx=0;entryDy=0;strokeColor=#003366;" edge="1" parent="1" source="Hv7dV6qF_i-MDi4Ku1Tc-24" target="Hv7dV6qF_i-MDi4Ku1Tc-22">
          <mxGeometry relative="1" as="geometry" />
        </mxCell>
        <mxCell id="Hv7dV6qF_i-MDi4Ku1Tc-24" value="yshop-bootstrap" style="rounded=0;whiteSpace=wrap;html=1;fillColor=none;" vertex="1" parent="1">
          <mxGeometry x="1370" y="210" width="147" height="50" as="geometry" />
        </mxCell>
      </root>
    </mxGraphModel>
  </diagram>
</mxfile>
